<mxfile host="app.diagrams.net" modified="2024-06-28T16:19:57.589Z" agent="Mozilla/5.0 (Windows NT 10.0; Win64; x64) AppleWebKit/537.36 (KHTML, like Gecko) Chrome/126.0.0.0 Safari/537.36" etag="rHI6agjhXhyP0CeT9yK9" version="24.6.4" type="device">
  <diagram name="Page-1" id="_JvfPcFlM8eRfLF0AqEO">
    <mxGraphModel dx="1467" dy="787" grid="1" gridSize="10" guides="1" tooltips="1" connect="1" arrows="1" fold="1" page="1" pageScale="1" pageWidth="850" pageHeight="1100" math="0" shadow="0">
      <root>
        <mxCell id="0" />
        <mxCell id="1" parent="0" />
        <mxCell id="l7z-90jIiwIYoh51WgG_-16" style="edgeStyle=orthogonalEdgeStyle;rounded=0;orthogonalLoop=1;jettySize=auto;html=1;exitX=0.5;exitY=1;exitDx=0;exitDy=0;entryX=0.5;entryY=0;entryDx=0;entryDy=0;" edge="1" parent="1" source="l7z-90jIiwIYoh51WgG_-1" target="l7z-90jIiwIYoh51WgG_-15">
          <mxGeometry relative="1" as="geometry" />
        </mxCell>
        <mxCell id="l7z-90jIiwIYoh51WgG_-1" value="Start" style="ellipse;whiteSpace=wrap;html=1;aspect=fixed;" vertex="1" parent="1">
          <mxGeometry x="370" y="110" width="50" height="50" as="geometry" />
        </mxCell>
        <mxCell id="l7z-90jIiwIYoh51WgG_-18" style="edgeStyle=orthogonalEdgeStyle;rounded=0;orthogonalLoop=1;jettySize=auto;html=1;exitX=0.5;exitY=1;exitDx=0;exitDy=0;entryX=0.5;entryY=0;entryDx=0;entryDy=0;" edge="1" parent="1" source="l7z-90jIiwIYoh51WgG_-2" target="l7z-90jIiwIYoh51WgG_-4">
          <mxGeometry relative="1" as="geometry" />
        </mxCell>
        <mxCell id="l7z-90jIiwIYoh51WgG_-2" value="Input Balance" style="shape=parallelogram;perimeter=parallelogramPerimeter;whiteSpace=wrap;html=1;fixedSize=1;" vertex="1" parent="1">
          <mxGeometry x="335" y="300" width="120" height="60" as="geometry" />
        </mxCell>
        <mxCell id="l7z-90jIiwIYoh51WgG_-7" style="edgeStyle=orthogonalEdgeStyle;rounded=0;orthogonalLoop=1;jettySize=auto;html=1;exitX=1;exitY=0.5;exitDx=0;exitDy=0;entryX=0;entryY=0.5;entryDx=0;entryDy=0;" edge="1" parent="1" source="l7z-90jIiwIYoh51WgG_-4" target="l7z-90jIiwIYoh51WgG_-6">
          <mxGeometry relative="1" as="geometry" />
        </mxCell>
        <mxCell id="l7z-90jIiwIYoh51WgG_-8" value="yes" style="edgeLabel;html=1;align=center;verticalAlign=middle;resizable=0;points=[];" vertex="1" connectable="0" parent="l7z-90jIiwIYoh51WgG_-7">
          <mxGeometry x="-0.1429" relative="1" as="geometry">
            <mxPoint as="offset" />
          </mxGeometry>
        </mxCell>
        <mxCell id="l7z-90jIiwIYoh51WgG_-20" style="edgeStyle=orthogonalEdgeStyle;rounded=0;orthogonalLoop=1;jettySize=auto;html=1;exitX=0.5;exitY=1;exitDx=0;exitDy=0;entryX=0.5;entryY=0;entryDx=0;entryDy=0;" edge="1" parent="1" source="l7z-90jIiwIYoh51WgG_-4" target="l7z-90jIiwIYoh51WgG_-19">
          <mxGeometry relative="1" as="geometry" />
        </mxCell>
        <mxCell id="l7z-90jIiwIYoh51WgG_-21" value="No" style="edgeLabel;html=1;align=center;verticalAlign=middle;resizable=0;points=[];" vertex="1" connectable="0" parent="l7z-90jIiwIYoh51WgG_-20">
          <mxGeometry x="-0.1966" y="1" relative="1" as="geometry">
            <mxPoint as="offset" />
          </mxGeometry>
        </mxCell>
        <mxCell id="l7z-90jIiwIYoh51WgG_-4" value="Nan" style="rhombus;whiteSpace=wrap;html=1;" vertex="1" parent="1">
          <mxGeometry x="355" y="400" width="80" height="80" as="geometry" />
        </mxCell>
        <mxCell id="l7z-90jIiwIYoh51WgG_-11" style="edgeStyle=orthogonalEdgeStyle;rounded=0;orthogonalLoop=1;jettySize=auto;html=1;exitX=0.5;exitY=1;exitDx=0;exitDy=0;entryX=1;entryY=0.5;entryDx=0;entryDy=0;" edge="1" parent="1" source="l7z-90jIiwIYoh51WgG_-6" target="l7z-90jIiwIYoh51WgG_-10">
          <mxGeometry relative="1" as="geometry" />
        </mxCell>
        <mxCell id="l7z-90jIiwIYoh51WgG_-6" value="Error Message" style="shape=parallelogram;perimeter=parallelogramPerimeter;whiteSpace=wrap;html=1;fixedSize=1;" vertex="1" parent="1">
          <mxGeometry x="530" y="410" width="120" height="60" as="geometry" />
        </mxCell>
        <mxCell id="l7z-90jIiwIYoh51WgG_-10" value="End" style="ellipse;whiteSpace=wrap;html=1;aspect=fixed;" vertex="1" parent="1">
          <mxGeometry x="370" y="990" width="50" height="50" as="geometry" />
        </mxCell>
        <mxCell id="l7z-90jIiwIYoh51WgG_-30" style="edgeStyle=orthogonalEdgeStyle;rounded=0;orthogonalLoop=1;jettySize=auto;html=1;exitX=0.5;exitY=1;exitDx=0;exitDy=0;entryX=0.5;entryY=0;entryDx=0;entryDy=0;" edge="1" parent="1" source="l7z-90jIiwIYoh51WgG_-13" target="l7z-90jIiwIYoh51WgG_-27">
          <mxGeometry relative="1" as="geometry" />
        </mxCell>
        <mxCell id="l7z-90jIiwIYoh51WgG_-13" value="Withdraw()" style="rounded=0;whiteSpace=wrap;html=1;" vertex="1" parent="1">
          <mxGeometry x="335" y="640" width="120" height="60" as="geometry" />
        </mxCell>
        <mxCell id="l7z-90jIiwIYoh51WgG_-17" style="edgeStyle=orthogonalEdgeStyle;rounded=0;orthogonalLoop=1;jettySize=auto;html=1;exitX=0.5;exitY=1;exitDx=0;exitDy=0;entryX=0.5;entryY=0;entryDx=0;entryDy=0;" edge="1" parent="1" source="l7z-90jIiwIYoh51WgG_-15" target="l7z-90jIiwIYoh51WgG_-2">
          <mxGeometry relative="1" as="geometry" />
        </mxCell>
        <mxCell id="l7z-90jIiwIYoh51WgG_-15" value="Deposite()" style="rounded=0;whiteSpace=wrap;html=1;" vertex="1" parent="1">
          <mxGeometry x="347.5" y="210" width="95" height="50" as="geometry" />
        </mxCell>
        <mxCell id="l7z-90jIiwIYoh51WgG_-22" style="edgeStyle=orthogonalEdgeStyle;rounded=0;orthogonalLoop=1;jettySize=auto;html=1;exitX=0.5;exitY=1;exitDx=0;exitDy=0;entryX=0.5;entryY=0;entryDx=0;entryDy=0;" edge="1" parent="1" source="l7z-90jIiwIYoh51WgG_-19" target="l7z-90jIiwIYoh51WgG_-13">
          <mxGeometry relative="1" as="geometry" />
        </mxCell>
        <mxCell id="l7z-90jIiwIYoh51WgG_-19" value="Output Balance&amp;nbsp;" style="shape=parallelogram;perimeter=parallelogramPerimeter;whiteSpace=wrap;html=1;fixedSize=1;" vertex="1" parent="1">
          <mxGeometry x="335" y="520" width="120" height="60" as="geometry" />
        </mxCell>
        <mxCell id="l7z-90jIiwIYoh51WgG_-25" style="edgeStyle=orthogonalEdgeStyle;rounded=0;orthogonalLoop=1;jettySize=auto;html=1;exitX=0.5;exitY=1;exitDx=0;exitDy=0;entryX=0.5;entryY=0;entryDx=0;entryDy=0;" edge="1" parent="1" source="l7z-90jIiwIYoh51WgG_-27" target="l7z-90jIiwIYoh51WgG_-28">
          <mxGeometry relative="1" as="geometry" />
        </mxCell>
        <mxCell id="l7z-90jIiwIYoh51WgG_-26" value="No" style="edgeLabel;html=1;align=center;verticalAlign=middle;resizable=0;points=[];" vertex="1" connectable="0" parent="l7z-90jIiwIYoh51WgG_-25">
          <mxGeometry x="-0.1966" y="1" relative="1" as="geometry">
            <mxPoint as="offset" />
          </mxGeometry>
        </mxCell>
        <mxCell id="l7z-90jIiwIYoh51WgG_-32" style="edgeStyle=orthogonalEdgeStyle;rounded=0;orthogonalLoop=1;jettySize=auto;html=1;exitX=0;exitY=0.5;exitDx=0;exitDy=0;entryX=1;entryY=0.5;entryDx=0;entryDy=0;" edge="1" parent="1" source="l7z-90jIiwIYoh51WgG_-27" target="l7z-90jIiwIYoh51WgG_-31">
          <mxGeometry relative="1" as="geometry" />
        </mxCell>
        <mxCell id="l7z-90jIiwIYoh51WgG_-27" value="Nan" style="rhombus;whiteSpace=wrap;html=1;" vertex="1" parent="1">
          <mxGeometry x="355" y="740" width="80" height="80" as="geometry" />
        </mxCell>
        <mxCell id="l7z-90jIiwIYoh51WgG_-29" style="edgeStyle=orthogonalEdgeStyle;rounded=0;orthogonalLoop=1;jettySize=auto;html=1;exitX=0.5;exitY=1;exitDx=0;exitDy=0;entryX=0.5;entryY=0;entryDx=0;entryDy=0;" edge="1" parent="1" source="l7z-90jIiwIYoh51WgG_-28" target="l7z-90jIiwIYoh51WgG_-10">
          <mxGeometry relative="1" as="geometry" />
        </mxCell>
        <mxCell id="l7z-90jIiwIYoh51WgG_-28" value="Output Balance&amp;nbsp;" style="shape=parallelogram;perimeter=parallelogramPerimeter;whiteSpace=wrap;html=1;fixedSize=1;" vertex="1" parent="1">
          <mxGeometry x="335" y="890" width="120" height="60" as="geometry" />
        </mxCell>
        <mxCell id="l7z-90jIiwIYoh51WgG_-33" style="edgeStyle=orthogonalEdgeStyle;rounded=0;orthogonalLoop=1;jettySize=auto;html=1;exitX=0.5;exitY=1;exitDx=0;exitDy=0;entryX=0;entryY=0.5;entryDx=0;entryDy=0;" edge="1" parent="1" source="l7z-90jIiwIYoh51WgG_-31" target="l7z-90jIiwIYoh51WgG_-10">
          <mxGeometry relative="1" as="geometry" />
        </mxCell>
        <mxCell id="l7z-90jIiwIYoh51WgG_-31" value="Error Message" style="shape=parallelogram;perimeter=parallelogramPerimeter;whiteSpace=wrap;html=1;fixedSize=1;" vertex="1" parent="1">
          <mxGeometry x="160" y="750" width="120" height="60" as="geometry" />
        </mxCell>
      </root>
    </mxGraphModel>
  </diagram>
</mxfile>
